<?xml version="1.0" standalone="no"?>
<!DOCTYPE svg PUBLIC "-//W3C//DTD SVG 20010904//EN"
 "http://www.w3.org/TR/2001/REC-SVG-20010904/DTD/svg10.dtd">
<svg version="1.0" xmlns="http://www.w3.org/2000/svg"
 width="200.000000pt" height="200.000000pt" viewBox="0 0 200.000000 200.000000"
 preserveAspectRatio="xMidYMid meet">
<metadata>
Created by potrace 1.13, written by Peter Selinger 2001-2015
</metadata>
<g transform="translate(0.000000,200.000000) scale(0.100000,-0.100000)"
fill="#000000" stroke="none">
<path d="M975 1438 c-10 -25 -20 -82 -23 -135 l-5 -93 -296 -1 c-163 -1 -375
-4 -471 -8 l-175 -6 0 -25 c0 -25 1 -25 140 -37 77 -7 290 -21 473 -32 184
-11 335 -21 338 -23 2 -2 7 -99 10 -215 l7 -211 -44 -6 c-91 -14 -99 -17 -99
-37 0 -26 34 -32 170 -32 128 0 170 6 170 28 0 20 -26 31 -92 39 l-57 7 5 112
c2 62 7 158 10 214 l6 102 61 5 c34 3 188 13 342 22 154 8 341 21 415 27 134
12 135 12 135 37 l0 25 -180 6 c-99 4 -311 7 -471 8 l-291 1 -7 88 c-8 95 -22
157 -41 172 -9 8 -17 -1 -30 -32z"/>
</g>
</svg>
